<?xml version="1.0" encoding="UTF-8"?>
<svg width="381px" height="81px" viewBox="0 0 381 81" version="1.1" xmlns="http://www.w3.org/2000/svg" xmlns:xlink="http://www.w3.org/1999/xlink">
    <title>Group 4</title>
    <defs>
        <ellipse id="path-1" cx="33.9794323" cy="34.0262952" rx="33.9794323" ry="34.0262952"></ellipse>
        <filter x="-16.2%" y="-10.3%" width="132.4%" height="132.3%" filterUnits="objectBoundingBox" id="filter-3">
            <feOffset dx="0" dy="4" in="SourceAlpha" result="shadowOffsetOuter1"></feOffset>
            <feGaussianBlur stdDeviation="3" in="shadowOffsetOuter1" result="shadowBlurOuter1"></feGaussianBlur>
            <feColorMatrix values="0 0 0 0 0   0 0 0 0 0   0 0 0 0 0  0 0 0 0.5 0" type="matrix" in="shadowBlurOuter1"></feColorMatrix>
        </filter>
    </defs>
    <g id="Page-1" stroke="none" stroke-width="1" fill="none" fill-rule="evenodd">
        <g id="a" transform="translate(-2491, -4716)">
            <g id="PWA's" transform="translate(2250, 3810)">
                <g id="Group-17" transform="translate(189.4751, 105)">
                    <g id="Group-18" transform="translate(0, 694.1667)">
                        <g id="Group-2" transform="translate(52.1223, 109.2514)">
                            <g id="TA_Icon23" transform="translate(306.145, 0)">
                                <mask id="mask-2" fill="white">
                                    <use xlink:href="#path-1"></use>
                                </mask>
                                <g id="Oval">
                                    <use fill="black" fill-opacity="1" filter="url(#filter-3)" xlink:href="#path-1"></use>
                                    <use fill="#FFFFFF" fill-rule="evenodd" xlink:href="#path-1"></use>
                                </g>
                                <path d="M39.5708146,2.384143 C40.8119076,1.64920069 42.4138008,2.05951695 43.1487431,3.30061001 L75.8558329,58.5328941 C76.0944114,58.9357803 76.2202902,59.3953972 76.2202902,59.8636248 C76.2202902,61.3060021 75.0510124,62.4752799 73.6086351,62.4752799 L47.9601362,62.4752767 L47.9985497,52.6846859 L55.3401877,52.6819386 C55.9628234,52.6795055 56.5610069,52.339912 56.9003107,51.7937017 C57.2397001,51.2477505 57.2682646,50.5989835 56.9850494,50.0032339 L42.4419168,20.7188945 C42.1330321,20.0974754 41.485974,19.7108627 40.7854075,19.7395431 C40.0851299,19.7164234 39.4348573,20.1081059 39.1211932,20.7318714 L24.3488218,50.1308576 C24.0610286,50.7287521 24.0844372,51.3772296 24.4195691,51.9207178 C24.7548741,52.4642054 25.3501618,52.7992214 25.9727975,52.7967882 L33.3146389,52.7419818 L33.2761362,62.4752767 L8.61321413,62.4752799 C8.21615391,62.4752799 7.82521769,62.3847573 7.46978332,62.2116693 L7.29516064,62.1182816 C6.04994808,61.3903408 5.6306165,59.7907839 6.35855735,58.5455713 L38.6468885,3.31328728 C38.8709021,2.93009057 39.1888856,2.61031119 39.5708146,2.384143 Z" id="Combined-Shape" fill="#FE424D" mask="url(#mask-2)" transform="translate(41.1107, 32.2473) scale(-1, -1) rotate(-97) translate(-41.1107, -32.2473)"></path>
                            </g>
                            <g id="TipDirect" transform="translate(0, 15.8076)" fill="#FFFFFF" fill-rule="nonzero">
                                <polygon id="Path" points="12.8733506 42.5231471 26.1544544 42.5231471 26.1544544 10.5578733 39.3773078 10.5578733 39.3773078 0 0 0 0 10.5578733 12.8733506 10.5578733"></polygon>
                                <path d="M42.1951736,7.52467213 L55.0685243,7.52467213 L55.0685243,0 L42.1951736,0 L42.1951736,7.52467213 Z M42.1951736,42.5231471 L55.0685243,42.5231471 L55.0685243,10.7911965 L42.1951736,10.7911965 L42.1951736,42.5231471 Z" id="Shape"></path>
                                <path d="M59.2261506,52.2643894 L72.0995012,52.2643894 L72.0995012,38.4983225 L72.5072544,38.4983225 C73.516929,39.9371487 74.9537735,41.0648773 76.8177881,41.8815084 C78.6818027,42.6981395 80.7594022,43.1064551 83.0505868,43.1064551 C86.1572778,43.1064551 88.8659239,42.435651 91.1765253,41.0940427 C93.4871267,39.7524345 95.2831824,37.8566838 96.5646924,35.4067906 C97.8462024,32.9568973 98.4869575,30.0598013 98.4869575,26.7155026 C98.4869575,23.3323167 97.8462024,20.4157771 96.5646924,17.9658838 C95.2831824,15.5159906 93.4968351,13.6299617 91.2056505,12.307797 C88.914466,10.9856324 86.234945,10.3245501 83.1670877,10.3245501 C80.3322322,10.3245501 78.0313392,10.7523093 76.2644088,11.6078275 C74.4974783,12.4633458 73.1480094,13.5716309 72.2160021,14.9326827 L71.8082489,14.9326827 L71.4004957,10.7911965 L59.2261506,10.7911965 L59.2261506,52.2643894 Z M79.0313054,33.4818744 C76.8566217,33.4818744 75.1576501,32.8888447 73.9343905,31.7027853 C72.711131,30.5167259 72.0995012,28.9709599 72.0995012,27.0654873 L72.0995012,26.3655178 C72.0995012,24.4600453 72.711131,22.9142793 73.9343905,21.7282199 C75.1576501,20.5421605 76.8566217,19.9491308 79.0313054,19.9491308 C81.0118209,19.9491308 82.604,20.5324387 83.8078427,21.6990545 C85.0116855,22.8656703 85.6136068,24.5378197 85.6136068,26.7155026 C85.6136068,28.9320727 85.0019771,30.6139438 83.7787175,31.7611161 C82.5554579,32.9082883 80.9729872,33.4818744 79.0313054,33.4818744 Z" id="Shape"></path>
                                <path d="M102.003829,42.5231471 L123.439996,42.5231471 C128.061199,42.5231471 132.070772,41.7356815 135.468715,40.1607501 C138.866659,38.5858187 141.497637,36.2234216 143.361652,33.0735589 C145.225667,29.9236961 146.157674,25.9960895 146.157674,21.290739 C146.157674,17.0131476 145.332459,13.2799769 143.68203,10.091227 C142.0316,6.90247702 139.52683,4.42341837 136.167721,2.65405102 C132.808611,0.884683674 128.566036,0 123.439996,0 L102.003829,0 L102.003829,42.5231471 Z M115.284933,32.3152586 L115.284933,10.2078885 L120.702225,10.2078885 C123.071077,10.2078885 125.158385,10.5287079 126.964149,11.1703466 C128.769913,11.8119853 130.177632,12.9105486 131.187307,14.4660363 C132.196981,16.0215241 132.701819,18.2186506 132.701819,21.0574158 C132.701819,24.6739249 131.808645,27.4543593 130.022298,29.398719 C128.23595,31.3430787 125.12926,32.3152586 120.702225,32.3152586 L115.284933,32.3152586 Z" id="Shape"></path>
                                <path d="M148.97554,7.52467213 L161.84889,7.52467213 L161.84889,0 L148.97554,0 L148.97554,7.52467213 Z M148.97554,42.5231471 L161.84889,42.5231471 L161.84889,10.7911965 L148.97554,10.7911965 L148.97554,42.5231471 Z" id="Shape"></path>
                                <path d="M166.006517,42.5231471 L178.879867,42.5231471 L178.879867,29.5737114 C178.879867,26.6571718 179.501206,24.6155941 180.743882,23.4489783 C181.986558,22.2823624 183.850573,21.6990545 186.335926,21.6990545 C186.763096,21.6990545 187.209682,21.7184981 187.675686,21.7573853 C188.14169,21.7962725 188.62711,21.8546033 189.131947,21.9323777 L189.131947,10.3828809 C188.743611,10.3439937 188.355275,10.3245501 187.966938,10.3245501 C187.578602,10.3245501 187.151432,10.3245501 186.685428,10.3245501 C184.704913,10.3245501 183.025358,10.7814747 181.646764,11.6953237 C180.26817,12.6091728 179.248787,13.8243976 178.588615,15.3409982 L178.122611,15.3409982 L177.714858,10.7911965 L166.006517,10.7911965 L166.006517,42.5231471 Z" id="Path"></path>
                                <path d="M209.250199,43.1064551 C212.745226,43.1064551 215.871334,42.6495305 218.628522,41.7356815 C221.38571,40.8218324 223.618644,39.5288332 225.327324,37.8566838 C227.036004,36.1845344 228.006845,34.2596183 228.239847,32.0819354 L216.123752,32.0819354 C215.77425,32.8207921 214.997577,33.4332654 213.793734,33.9193554 C212.589891,34.4054453 211.19188,34.6484903 209.599701,34.6484903 C207.386184,34.6484903 205.658087,34.1915657 204.415411,33.2777167 C203.172734,32.3638676 202.531979,31.1097556 202.493146,29.5153806 L228.123346,29.5153806 C228.434015,25.4322252 227.870927,21.9518213 226.434083,19.0741689 C224.997238,16.1965165 222.812846,13.99939 219.880907,12.4827894 C216.948967,10.9661888 213.366564,10.2078885 209.133698,10.2078885 C205.289168,10.2078885 201.900933,10.8592491 198.968993,12.1619701 C196.037054,13.4646911 193.745869,15.35072 192.095439,17.8200569 C190.44501,20.2893937 189.619795,23.3128731 189.619795,26.890495 C189.619795,30.3125681 190.425593,33.2291077 192.037189,35.6401137 C193.648785,38.0511198 195.920553,39.8982615 198.852492,41.1815389 C201.784432,42.4648163 205.250334,43.1064551 209.250199,43.1064551 Z M209.075447,18.7241841 C211.094796,18.7241841 212.5996,19.1033343 213.589857,19.8616346 C214.580115,20.6199349 215.191745,21.6018365 215.424747,22.8073395 L202.260144,22.8073395 C202.64848,21.4462877 203.434861,20.4254989 204.619287,19.744973 C205.803713,19.0644471 207.2891,18.7241841 209.075447,18.7241841 Z" id="Shape"></path>
                                <path d="M248.882352,43.1064551 C252.338546,43.1064551 255.493779,42.5911997 258.348051,41.5606891 C261.202323,40.5301784 263.503216,39.0427432 265.25073,37.0983835 C266.998244,35.1540238 267.930251,32.8402357 268.046752,30.1570193 L255.231652,30.1570193 C254.882149,31.2458607 254.163727,32.0624918 253.076385,32.6069126 C251.989043,33.1513333 250.765784,33.4235436 249.406606,33.4235436 C247.387257,33.4235436 245.765953,32.8694011 244.542693,31.7611161 C243.319434,30.652831 242.707804,28.9126291 242.707804,26.5405102 C242.707804,24.5572633 243.270892,22.9531665 244.397067,21.7282199 C245.523243,20.5032733 247.193089,19.8908 249.406606,19.8908 C250.998785,19.8908 252.309421,20.1921757 253.338512,20.7949272 C254.367603,21.3976788 254.979233,22.1851444 255.173401,23.1573243 L267.930251,23.1573243 C267.852584,20.5907695 267.046786,18.3353122 265.512857,16.3909525 C263.978928,14.4465927 261.852787,12.9299922 259.134432,11.8411507 C256.416078,10.7523093 253.192886,10.2078885 249.464857,10.2078885 C245.542659,10.2078885 242.105883,10.8398055 239.154526,12.1036393 C236.20317,13.3674731 233.911985,15.2146148 232.280972,17.6450645 C230.64996,20.0755141 229.834453,23.0212191 229.834453,26.4821794 C229.834453,29.8264781 230.601418,32.7430177 232.135346,35.2317982 C233.669275,37.7205786 235.853667,39.6552165 238.688522,41.035712 C241.523378,42.4162074 244.921321,43.1064551 248.882352,43.1064551 Z" id="Path"></path>
                                <path d="M284.553475,42.5231471 L295.155058,42.5231471 L295.155058,31.6736199 L290.029018,31.6736199 C289.174678,31.6736199 288.563048,31.5180711 288.194128,31.2069736 C287.825209,30.895876 287.640749,30.3320117 287.640749,29.5153806 L287.640749,20.4157771 L295.155058,20.4157771 L295.155058,10.7911965 L287.640749,10.7911965 L287.640749,1.10828504 L275.0004,3.4998475 L275.0004,10.7911965 L269.583108,10.7911965 L269.583108,20.4157771 L275.0004,20.4157771 L275.0004,33.7735284 C275.0004,36.7289552 275.883865,38.9260817 277.650796,40.3649078 C279.417726,41.803734 281.718619,42.5231471 284.553475,42.5231471 Z" id="Path"></path>
                            </g>
                        </g>
                    </g>
                </g>
            </g>
        </g>
    </g>
</svg>