<?xml version="1.0" encoding="UTF-8"?>
<svg width="470px" height="98px" viewBox="0 0 470 98" version="1.1" xmlns="http://www.w3.org/2000/svg" xmlns:xlink="http://www.w3.org/1999/xlink">
    <title>TripAdmit</title>
    <g id="Page-1" stroke="none" stroke-width="1" fill="none" fill-rule="evenodd">
        <g id="Artboard" transform="translate(-82.000000, -51.000000)" fill-rule="nonzero">
            <g id="TripAdmit" transform="translate(83.000000, 52.000000)">
                <g id="CONNECTING-EXPERIENCES" transform="translate(133.138174, 81.512925)" fill="#002D42">
                    <path d="M5.8354817,13.7905689 C6.7720405,13.7905689 7.6135016,13.6256409 8.35986501,13.2957849 C9.10622842,12.9659289 9.72349499,12.5029076 10.2116647,11.906721 C10.6998345,11.3105344 11.0177229,10.6090194 11.1653302,9.80217602 L11.1667577,9.77819341 L9.50396375,9.77819341 L9.48497752,9.80146225 C9.34679203,10.3126153 9.1069184,10.7533908 8.76535661,11.1237889 C8.42379483,11.4941869 8.00388511,11.7784807 7.50562746,11.9766702 C7.00736981,12.1748598 6.45065456,12.2739546 5.8354817,12.2739546 C4.9869543,12.2739546 4.25227289,12.0546851 3.63143748,11.616146 C3.01060207,11.177607 2.53185408,10.5567002 2.1951935,9.75342566 C1.85853292,8.95015115 1.69020264,8.00152968 1.69020264,6.90756125 L1.69020264,6.89000256 C1.69020264,5.78994331 1.85853292,4.83851435 2.1951935,4.03571568 C2.53185408,3.23291701 3.01048311,2.61236711 3.6310806,2.17406597 C4.25167809,1.73576483 4.98362338,1.51661426 5.82691649,1.51661426 C6.43695021,1.51661426 6.98983491,1.62834274 7.48557058,1.85179971 C7.98130625,2.07525668 8.40240558,2.39112282 8.74886857,2.79939812 C9.09533156,3.20767342 9.34255701,3.6938446 9.49054491,4.25791166 L9.50396375,4.29045948 L11.1583352,4.29045948 L11.1653302,4.26647688 C11.034663,3.42641952 10.7222944,2.6859328 10.2282241,2.04501671 C9.73415393,1.40410063 9.10832214,0.903035488 8.35072878,0.541821293 C7.59313542,0.180607098 6.75186465,0 5.82691649,0 C4.63083165,0 3.59750971,0.280058773 2.72695066,0.840176319 C1.85639162,1.40029387 1.18426008,2.19455111 0.710556049,3.22294805 C0.236852016,4.25134499 0,5.4736965 0,6.89000256 L0,6.90756125 C0,8.31825233 0.236852016,9.53791531 0.710556049,10.5665502 C1.18426008,11.595185 1.85791433,12.3896802 2.73151878,12.9500357 C3.60512323,13.5103911 4.63977754,13.7905689 5.8354817,13.7905689 Z" id="Path"></path>
                    <path d="M18.9628787,13.7905689 C20.2171118,13.7905689 21.2964718,13.5078216 22.2009586,12.942327 C23.1054454,12.3768324 23.8001558,11.5784829 24.2850898,10.5472784 C24.7700238,9.51607401 25.0124908,8.30026538 25.0124908,6.89985255 L25.0124908,6.88158009 C25.0124908,5.47555229 24.7686201,4.25705514 24.2808786,3.22608863 C23.7931371,2.19512212 23.096904,1.39969906 22.1921793,0.839819435 C21.2874545,0.279939812 20.211021,0 18.9628787,0 C17.7203513,0 16.6466063,0.279939812 15.7416437,0.839819435 C14.836681,1.39969906 14.1388063,2.19371838 13.6480194,3.2218774 C13.1572325,4.25003642 12.911839,5.46993732 12.911839,6.88158009 L12.911839,6.89985255 C12.911839,8.30026538 13.154306,9.51747775 13.63924,10.5514897 C14.124174,11.5855016 14.8177186,12.3838511 15.7198738,12.9465382 C16.6220289,13.5092253 17.7030306,13.7905689 18.9628787,13.7905689 Z M18.9628787,12.2739546 C18.0502073,12.2739546 17.2677748,12.0521155 16.6155812,11.6084373 C15.9633876,11.1647591 15.4632266,10.539998 15.1150981,9.73415393 C14.7669697,8.92830985 14.5929055,7.98354272 14.5929055,6.89985255 L14.5929055,6.88158009 C14.5929055,5.78618413 14.7711809,4.83708681 15.1277318,4.03428814 C15.4842827,3.23148948 15.988774,2.61117749 16.6412055,2.1733522 C17.293637,1.73552691 18.0675281,1.51661426 18.9628787,1.51661426 C19.8638443,1.51661426 20.6404238,1.73552691 21.2926175,2.1733522 C21.9448111,2.61117749 22.4476606,3.23160844 22.8011661,4.03464503 C23.1546716,4.83768162 23.3314244,5.78665997 23.3314244,6.88158009 L23.3314244,6.89985255 C23.3314244,7.98306688 23.1547906,8.92759608 22.801523,9.73344016 C22.4482554,10.5392842 21.9456438,11.1641643 21.2936881,11.6080804 C20.6417324,12.0519966 19.8647959,12.2739546 18.9628787,12.2739546 Z" id="Shape"></path>
                    <polygon id="Path" points="27.3619184 13.4870747 28.9881674 13.4870747 28.9881674 3.24935747 29.8201354 3.24935747 28.6471291 2.56228439 36.2880156 13.4870747 37.8868559 13.4870747 37.8868559 0.303494156 36.2606069 0.303494156 36.2606069 10.5749013 35.4286389 10.5749013 36.6016452 11.2619743 28.9607587 0.303494156 27.3619184 0.303494156"></polygon>
                    <polygon id="Path" points="40.7479325 13.4870747 42.3741815 13.4870747 42.3741815 3.24935747 43.2061495 3.24935747 42.0331432 2.56228439 49.6740297 13.4870747 51.27287 13.4870747 51.27287 0.303494156 49.646621 0.303494156 49.646621 10.5749013 48.814653 10.5749013 49.9876593 11.2619743 42.3467728 0.303494156 40.7479325 0.303494156"></polygon>
                    <polygon id="Path" points="54.1339466 13.4870747 62.3017366 13.4870747 62.3017366 12.0070054 55.7784681 12.0070054 55.7784681 7.47543507 61.9636961 7.47543507 61.9636961 6.0136382 55.7784681 6.0136382 55.7784681 1.78356349 62.3017366 1.78356349 62.3017366 0.303494156 54.1339466 0.303494156"></polygon>
                    <path d="M70.1022339,13.7905689 C71.0387927,13.7905689 71.8802538,13.6256409 72.6266172,13.2957849 C73.3729806,12.9659289 73.9902472,12.5029076 74.4784169,11.906721 C74.9665867,11.3105344 75.2844752,10.6090194 75.4320824,9.80217602 L75.4335099,9.77819341 L73.770716,9.77819341 L73.7517297,9.80146225 C73.6135443,10.3126153 73.3736706,10.7533908 73.0321088,11.1237889 C72.6905471,11.4941869 72.2706373,11.7784807 71.7723797,11.9766702 C71.274122,12.1748598 70.7174068,12.2739546 70.1022339,12.2739546 C69.2537065,12.2739546 68.5190251,12.0546851 67.8981897,11.616146 C67.2773543,11.177607 66.7986063,10.5567002 66.4619457,9.75342566 C66.1252852,8.95015115 65.9569549,8.00152968 65.9569549,6.90756125 L65.9569549,6.89000256 C65.9569549,5.78994331 66.1252852,4.83851435 66.4619457,4.03571568 C66.7986063,3.23291701 67.2772353,2.61236711 67.8978328,2.17406597 C68.5184303,1.73576483 69.2503756,1.51661426 70.0936687,1.51661426 C70.7037024,1.51661426 71.2565871,1.62834274 71.7523228,1.85179971 C72.2480585,2.07525668 72.6691578,2.39112282 73.0156208,2.79939812 C73.3620838,3.20767342 73.6093092,3.6938446 73.7572971,4.25791166 L73.770716,4.29045948 L75.4250875,4.29045948 L75.4320824,4.26647688 C75.3014153,3.42641952 74.9890466,2.6859328 74.4949764,2.04501671 C74.0009062,1.40410063 73.3750744,0.903035488 72.617481,0.541821293 C71.8598876,0.180607098 71.0186169,0 70.0936687,0 C68.8975839,0 67.8642619,0.280058773 66.9937029,0.840176319 C66.1231438,1.40029387 65.4510123,2.19455111 64.9773083,3.22294805 C64.5036042,4.25134499 64.2667522,5.4736965 64.2667522,6.89000256 L64.2667522,6.90756125 C64.2667522,8.31825233 64.5036042,9.53791531 64.9773083,10.5665502 C65.4510123,11.595185 66.1246666,12.3896802 66.998271,12.9500357 C67.8718755,13.5103911 68.9065298,13.7905689 70.1022339,13.7905689 Z" id="Path"></path>
                    <polygon id="Path" points="80.638149 13.4870747 82.2826704 13.4870747 82.2826704 1.78356349 86.5240227 1.78356349 86.5240227 0.303494156 76.3969395 0.303494156 76.3969395 1.78356349 80.638149 1.78356349"></polygon>
                    <polygon id="Path" points="88.5627627 13.4870747 90.2072842 13.4870747 90.2072842 0.303494156 88.5627627 0.303494156"></polygon>
                    <polygon id="Path" points="93.0683608 13.4870747 94.6946098 13.4870747 94.6946098 3.24935747 95.5265778 3.24935747 94.3535715 2.56228439 101.994458 13.4870747 103.593298 13.4870747 103.593298 0.303494156 101.967049 0.303494156 101.967049 10.5749013 101.135081 10.5749013 102.308088 11.2619743 94.6672011 0.303494156 93.0683608 0.303494156"></polygon>
                    <path d="M111.922837,13.7905689 C112.766225,13.7905689 113.53217,13.6626617 114.22067,13.4068472 C114.909171,13.1510327 115.499624,12.783585 115.992028,12.3045039 C116.484433,11.8254228 116.862635,11.2525288 117.126634,10.5858219 C117.390633,9.91911501 117.522633,9.17762901 117.522633,8.36136392 L117.522633,6.78108156 L112.17651,6.78108156 L112.17651,8.22460597 L115.878111,8.22460597 L115.878111,8.53795013 C115.878111,9.28055436 115.71354,9.93203421 115.384398,10.4923897 C115.055256,11.0527451 114.593757,11.4897615 113.999902,11.8034388 C113.406047,12.117116 112.7165,12.2739546 111.93126,12.2739546 C111.266884,12.2739546 110.669508,12.1492118 110.139131,11.8997261 C109.608754,11.6502403 109.156034,11.2925236 108.780973,10.8265759 C108.405912,10.3606281 108.119286,9.79582348 107.921097,9.13216199 C107.722907,8.4685005 107.623812,7.72249397 107.623812,6.89414241 L107.623812,6.87658372 C107.623812,5.78680273 107.800327,4.84086978 108.153357,4.03878488 C108.506387,3.23669998 109.004549,2.61581699 109.647844,2.17613589 C110.29114,1.7364548 111.049471,1.51661426 111.922837,1.51661426 C112.899177,1.51661426 113.712491,1.74233149 114.362782,2.19376596 C115.013072,2.64520044 115.473643,3.29656133 115.744494,4.14784863 L115.772616,4.23992471 L117.440407,4.23992471 L117.419993,4.14213849 C117.247071,3.31197871 116.913241,2.58662387 116.418505,1.96607397 C115.923768,1.34552407 115.295153,0.862707596 114.532658,0.517624557 C113.770164,0.172541519 112.900223,0 111.922837,0 C110.721042,0 109.670709,0.284032082 108.771837,0.852096245 C107.872965,1.42016041 107.176732,2.21931886 106.683138,3.2495716 C106.189543,4.27982434 105.942746,5.48882838 105.942746,6.87658372 L105.942746,6.89414241 C105.942746,7.94737848 106.082954,8.89730853 106.363369,9.74393255 C106.643785,10.5905566 107.044613,11.3153642 107.565854,11.9183554 C108.087095,12.5213466 108.715045,12.98413 109.449702,13.3067055 C110.18436,13.6292811 111.008738,13.7905689 111.922837,13.7905689 Z" id="Path"></path>
                    <polygon id="Path" points="124.639981 13.4870747 132.807771 13.4870747 132.807771 12.0070054 126.284503 12.0070054 126.284503 7.47543507 132.469731 7.47543507 132.469731 6.0136382 126.284503 6.0136382 126.284503 1.78356349 132.807771 1.78356349 132.807771 0.303494156 124.639981 0.303494156"></polygon>
                    <polygon id="Path" points="134.416474 13.4870747 136.280265 13.4870747 140.227117 7.64902345 139.139905 8.22460597 139.889076 8.22460597 143.397389 13.4870747 145.370814 13.4870747 140.519476 6.36995119 140.912334 7.63988722 140.912334 6.90898878 145.471313 0.303494156 143.598386 0.303494156 139.642398 6.19636281 140.729609 5.61164406 139.980438 5.61164406 136.453853 0.303494156 134.471291 0.303494156 138.911499 6.82676271 138.911499 7.55766115 139.304357 6.28772511"></polygon>
                    <path d="M148.30356,8.78191603 L152.430138,8.78191603 C153.25849,8.78191603 153.989388,8.60223683 154.622834,8.24287843 C155.256279,7.88352003 155.754203,7.38407277 156.116607,6.74453664 C156.479011,6.1050005 156.660213,5.36801125 156.660213,4.53356886 L156.660213,4.5152964 C156.660213,3.68085402 156.479011,2.94691017 156.116607,2.31346486 C155.754203,1.68001955 155.256279,1.1866631 154.622834,0.833395523 C153.989388,0.480127945 153.25849,0.303494156 152.430138,0.303494156 L148.30356,0.303494156 L148.30356,1.76529103 L152.009872,1.76529103 C152.953949,1.76529103 153.684847,2.00892384 154.202567,2.49618947 C154.720287,2.98345509 154.979147,3.66258156 154.979147,4.53356886 L154.979147,4.55184132 C154.979147,5.41673781 154.720287,6.09434157 154.202567,6.5846526 C153.684847,7.07496364 152.953949,7.32011916 152.009872,7.32011916 L148.30356,7.32011916 L148.30356,8.78191603 Z M147.481299,13.4870747 L149.125821,13.4870747 L149.125821,0.303494156 L147.481299,0.303494156 L147.481299,13.4870747 Z" id="Shape"></path>
                    <polygon id="Path" points="158.845166 13.4870747 167.012956 13.4870747 167.012956 12.0070054 160.489688 12.0070054 160.489688 7.47543507 166.674916 7.47543507 166.674916 6.0136382 160.489688 6.0136382 160.489688 1.78356349 167.012956 1.78356349 167.012956 0.303494156 158.845166 0.303494156"></polygon>
                    <path d="M169.489601,13.4870747 L171.134122,13.4870747 L171.134122,8.27028712 L174.27827,8.27028712 C174.290928,8.27028712 174.306274,8.27028712 174.324308,8.27028712 C174.342343,8.27028712 174.357689,8.27028712 174.370346,8.27028712 L177.193442,13.4870747 L179.121186,13.4870747 L176.069685,8.01447267 C176.897561,7.7525674 177.546114,7.28673861 178.015345,6.61698629 C178.484576,5.94723398 178.719192,5.1555463 178.719192,4.24192326 L178.719192,4.22365079 C178.719192,3.43184415 178.545604,2.7434625 178.198427,2.15850583 C177.85125,1.57354915 177.362462,1.11814137 176.732062,0.792282486 C176.101662,0.466423599 175.36315,0.303494156 174.516526,0.303494156 L169.489601,0.303494156 L169.489601,13.4870747 Z M171.134122,6.80920402 L171.134122,1.76529103 L174.297256,1.76529103 C175.149495,1.76529103 175.816321,1.98748701 176.297734,2.43187897 C176.779147,2.87627093 177.019853,3.49132482 177.019853,4.27704064 L177.019853,4.2953131 C177.019853,5.09977723 176.789925,5.71987508 176.330068,6.15560666 C175.870211,6.59133823 175.21697,6.80920402 174.370346,6.80920402 L171.134122,6.80920402 Z" id="Shape"></path>
                    <polygon id="Path" points="181.196481 13.4870747 182.841003 13.4870747 182.841003 0.303494156 181.196481 0.303494156"></polygon>
                    <polygon id="Path" points="185.702079 13.4870747 193.869869 13.4870747 193.869869 12.0070054 187.346601 12.0070054 187.346601 7.47543507 193.531829 7.47543507 193.531829 6.0136382 187.346601 6.0136382 187.346601 1.78356349 193.869869 1.78356349 193.869869 0.303494156 185.702079 0.303494156"></polygon>
                    <polygon id="Path" points="196.346514 13.4870747 197.972763 13.4870747 197.972763 3.24935747 198.804731 3.24935747 197.631724 2.56228439 205.272611 13.4870747 206.871451 13.4870747 206.871451 0.303494156 205.245202 0.303494156 205.245202 10.5749013 204.413234 10.5749013 205.586241 11.2619743 197.945354 0.303494156 196.346514 0.303494156"></polygon>
                    <path d="M215.056381,13.7905689 C215.992939,13.7905689 216.834401,13.6256409 217.580764,13.2957849 C218.327127,12.9659289 218.944394,12.5029076 219.432564,11.906721 C219.920733,11.3105344 220.238622,10.6090194 220.386229,9.80217602 L220.387657,9.77819341 L218.724863,9.77819341 L218.705876,9.80146225 C218.567691,10.3126153 218.327817,10.7533908 217.986256,11.1237889 C217.644694,11.4941869 217.224784,11.7784807 216.726526,11.9766702 C216.228269,12.1748598 215.671554,12.2739546 215.056381,12.2739546 C214.207853,12.2739546 213.473172,12.0546851 212.852336,11.616146 C212.231501,11.177607 211.752753,10.5567002 211.416092,9.75342566 C211.079432,8.95015115 210.911102,8.00152968 210.911102,6.90756125 L210.911102,6.89000256 C210.911102,5.78994331 211.079432,4.83851435 211.416092,4.03571568 C211.752753,3.23291701 212.231382,2.61236711 212.85198,2.17406597 C213.472577,1.73576483 214.204522,1.51661426 215.047815,1.51661426 C215.657849,1.51661426 216.210734,1.62834274 216.70647,1.85179971 C217.202205,2.07525668 217.623305,2.39112282 217.969768,2.79939812 C218.316231,3.20767342 218.563456,3.6938446 218.711444,4.25791166 L218.724863,4.29045948 L220.379234,4.29045948 L220.386229,4.26647688 C220.255562,3.42641952 219.943193,2.6859328 219.449123,2.04501671 C218.955053,1.40410063 218.329221,0.903035488 217.571628,0.541821293 C216.814034,0.180607098 215.972764,0 215.047815,0 C213.851731,0 212.818409,0.280058773 211.94785,0.840176319 C211.077291,1.40029387 210.405159,2.19455111 209.931455,3.22294805 C209.457751,4.25134499 209.220899,5.4736965 209.220899,6.89000256 L209.220899,6.90756125 C209.220899,8.31825233 209.457751,9.53791531 209.931455,10.5665502 C210.405159,11.595185 211.078813,12.3896802 211.952418,12.9500357 C212.826022,13.5103911 213.860676,13.7905689 215.056381,13.7905689 Z" id="Path"></path>
                    <polygon id="Path" points="222.644367 13.4870747 230.812157 13.4870747 230.812157 12.0070054 224.288888 12.0070054 224.288888 7.47543507 230.474116 7.47543507 230.474116 6.0136382 224.288888 6.0136382 224.288888 1.78356349 230.812157 1.78356349 230.812157 0.303494156 222.644367 0.303494156"></polygon>
                    <path d="M237.609525,13.7905689 C238.59205,13.7905689 239.448643,13.6282342 240.179304,13.303565 C240.909964,12.9788957 241.475935,12.5190626 241.877215,11.9240655 C242.278495,11.3290685 242.479136,10.6221051 242.479136,9.80317529 L242.479136,9.79403906 C242.479136,9.15773868 242.349468,8.60613876 242.090132,8.13923932 C241.830796,7.67233987 241.420832,7.27748341 240.860238,6.95466994 C240.299645,6.63185646 239.560205,6.37018911 238.641919,6.16966788 L237.180122,5.84147736 C236.585125,5.70795515 236.10326,5.5410524 235.734528,5.3407691 C235.365795,5.1404858 235.0958,4.90189695 234.924544,4.62500254 C234.753287,4.34810814 234.667658,4.03559672 234.667658,3.68746827 L234.667658,3.67833204 C234.667658,3.21828477 234.796375,2.82849606 235.053807,2.50896592 C235.311239,2.18943577 235.659225,1.94416129 236.097764,1.77314248 C236.536303,1.60212366 237.031087,1.51661426 237.582116,1.51661426 C238.153701,1.51099928 238.652554,1.59627077 239.078673,1.77242871 C239.504793,1.94858665 239.845998,2.18800824 240.102288,2.49069345 C240.358578,2.79337867 240.517416,3.14195918 240.5788,3.53643496 L240.597072,3.65591972 L242.241594,3.65591972 L242.232457,3.52729873 C242.189346,2.86482685 241.968078,2.26792646 241.568653,1.73659756 C241.169228,1.20526865 240.631476,0.783003502 239.955395,0.469802101 C239.279314,0.1566007 238.503448,0 237.627797,0 C236.720741,0 235.918513,0.158242367 235.221114,0.4747271 C234.523715,0.791211834 233.978468,1.22927505 233.585372,1.78891675 C233.192276,2.34855845 232.992683,2.9935906 232.986592,3.72401319 L232.986592,3.73314942 C232.986592,4.36707058 233.119424,4.92590334 233.385089,5.40964771 C233.650753,5.89339208 234.06224,6.30380869 234.619551,6.64089752 C235.176861,6.97798636 235.893341,7.24374598 236.768991,7.43817638 L238.230788,7.75794445 C239.138321,7.95894152 239.793084,8.24566213 240.195078,8.61810627 C240.597072,8.99055042 240.798069,9.45204902 240.798069,10.0026021 L240.798069,10.0117383 C240.798069,10.456844 240.664666,10.8497019 240.397859,11.190312 C240.131053,11.5309221 239.764795,11.7966817 239.299085,11.9875909 C238.833375,12.1785 238.300642,12.2739546 237.700887,12.2739546 C237.067442,12.2739546 236.502994,12.1857567 236.007544,12.0093608 C235.512094,11.832965 235.116785,11.584883 234.821618,11.2651149 C234.526451,10.9453469 234.356598,10.5661933 234.312059,10.1276542 L234.302209,10.0250144 L232.657688,10.0250144 L232.666824,10.1276542 C232.732871,10.8431353 232.974744,11.4763665 233.392441,12.0273478 C233.810138,12.5783291 234.37706,13.0099446 235.093207,13.3221943 C235.809354,13.634444 236.648127,13.7905689 237.609525,13.7905689 Z" id="Path"></path>
                </g>
                <path d="M440.355654,91.798474 L440.334512,77.3771586 L449.80766,77.4240355 C450.611051,77.4251969 451.380556,76.9949821 451.814589,76.2987385 C452.248734,75.602828 452.2811,74.7732879 451.911532,74.009414 L432.943245,36.4565942 C432.540377,35.6597146 431.702779,35.1608177 430.799013,35.19269 C429.89526,35.1583148 429.058904,35.6547912 428.658492,36.4503988 L409.800775,73.9486362 C409.433566,74.7113338 409.468261,75.5408603 409.904457,76.2382505 C410.340876,76.9356421 411.111316,77.368194 411.914707,77.3693555 L421.387757,77.3496527 L421.409022,91.798474 L393.353819,91.798474 C392.297689,91.798474 391.259443,91.5282399 390.339572,91.0139271 C387.38843,89.3639013 386.345581,85.6550377 388.010303,82.7299481 L424.914264,17.8858673 C425.458169,16.9301715 426.252833,16.1381527 427.214017,15.5937711 C430.155903,13.9275872 433.903514,14.9406951 435.584537,17.8566109 L472.967119,82.7006916 C473.496802,83.6194823 473.775412,84.6593745 473.775412,85.7175844 C473.775412,89.0759672 471.028656,91.798474 467.640362,91.798474 L440.355654,91.798474 Z" id="Combined-Shape" fill="#FE424D" transform="translate(430.496550, 53.295024) rotate(90.000000) translate(-430.496550, -53.295024) "></path>
                <g font-family="MontserratRoman-Bold, Montserrat" font-size="71.784" font-weight="bold">
                    <text id="Trip" fill="#19A5B8">
                        <tspan x="-0.0259093553" y="69.0347132">Trip</tspan>
                    </text>
                    <text id="Admit" fill="#002D42">
                        <tspan x="146.565833" y="68.9652868">Admit</tspan>
                    </text>
                </g>
            </g>
        </g>
    </g>
</svg>